# xmcd
#
# Track frame offsets: 
#        150
#        17033
#        33993
#        50182
#        67966
#        87020
#        105248
#        127431
#        148003
#        171847
#        193344
#        215775
#        238501
#        260309
#        285358
#        307491
#
# Disc length: 4351 seconds
#
# Revision: 0
# Processed by: cddbd v1.5.2PL0 Copyright (c) Steve Scherf et al.
# Submitted via: ExactAudioCopy v1.3
#
DISCID=f410fd10
DTITLE=石川さゆり - 石川さゆり大全集 [Disc 1]
DYEAR=2013
DGENRE=歌謡曲・演歌
TTITLE0=津軽海峡・冬景色
TTITLE1=能登半島
TTITLE2=暖流
TTITLE3=紫蘭の花
TTITLE4=波止場しぐれ
TTITLE5=夫婦善哉
TTITLE6=だいこんの花
TTITLE7=人生情け舟
TTITLE8=朝花
TTITLE9=鴎という名の酒場
TTITLE10=浜唄
TTITLE11=滝の白糸
TTITLE12=越前竹舞い
TTITLE13=風の盆恋歌
TTITLE14=天城越え
TTITLE15=かくれんぼ ～40周年記念篇～
EXTD=
EXTT0=
EXTT1=
EXTT2=
EXTT3=
EXTT4=
EXTT5=
EXTT6=
EXTT7=
EXTT8=
EXTT9=
EXTT10=
EXTT11=
EXTT12=
EXTT13=
EXTT14=
EXTT15=
PLAYORDER=
